<?xml version="1.0" standalone="no"?>
<!DOCTYPE svg PUBLIC "-//W3C//DTD SVG 20010904//EN"
 "http://www.w3.org/TR/2001/REC-SVG-20010904/DTD/svg10.dtd">
<svg version="1.0" xmlns="http://www.w3.org/2000/svg"
 width="500.000000pt" height="500.000000pt" viewBox="0 0 500.000000 500.000000"
 preserveAspectRatio="xMidYMid meet">

<g transform="translate(0.000000,500.000000) scale(0.100000,-0.100000)"
fill="#000000" stroke="none">
<path d="M2973 4058 c-4 -7 -78 -184 -164 -393 -86 -208 -161 -380 -165 -382
-5 -1 -31 46 -59 105 -27 59 -77 166 -111 237 -34 72 -82 174 -107 228 l-46
97 -89 0 c-87 0 -89 -1 -102 -27 -15 -33 -55 -126 -223 -523 -69 -162 -167
-394 -219 -515 l-93 -220 -3 613 -2 612 -183 -2 -182 -3 -3 -52 -3 -52 -142
-3 -142 -3 -3 -187 -2 -188 144 0 145 0 3 -567 c3 -618 1 -596 60 -650 40 -37
78 -47 193 -47 l110 -1 3 -602 2 -603 185 0 185 0 0 288 c0 158 5 316 10 351
31 190 190 365 387 428 261 82 609 -4 846 -212 118 -103 225 -269 268 -415 17
-59 23 -113 28 -255 l6 -180 135 0 135 0 3 537 2 537 143 3 142 3 3 296 2 296
-144 124 -145 124 0 118 c-1 125 -5 140 -61 222 -15 22 -57 87 -92 145 -36 58
-127 204 -203 325 -76 121 -161 256 -188 300 -27 44 -56 86 -65 93 -10 7 -48
12 -103 12 -59 0 -90 -4 -96 -12z"/>
</g>
</svg>
