<?xml version="1.0" standalone="no"?>
<!DOCTYPE svg PUBLIC "-//W3C//DTD SVG 20010904//EN"
 "http://www.w3.org/TR/2001/REC-SVG-20010904/DTD/svg10.dtd">
<svg version="1.0" xmlns="http://www.w3.org/2000/svg"
 width="180.000000pt" height="180.000000pt" viewBox="0 0 180.000000 180.000000"
 preserveAspectRatio="xMidYMid meet">

<g transform="translate(0.000000,180.000000) scale(0.100000,-0.100000)"
fill="#000000" stroke="none">
<path d="M1149 1518 c-34 -50 -81 -98 -97 -98 -7 0 -10 5 -7 10 22 35 -197 41
-319 10 -136 -36 -245 -103 -302 -186 -29 -42 -35 -57 -26 -66 7 -7 12 -16 12
-20 0 -14 -19 -9 -58 15 -45 28 -126 50 -154 41 -16 -5 -18 -11 -13 -32 14
-56 91 -102 174 -102 32 -1 34 -2 18 -14 -29 -23 -33 -146 -8 -323 23 -161 36
-204 129 -433 16 -40 61 -79 106 -91 49 -13 89 -2 94 26 6 34 19 38 49 17 15
-12 44 -24 64 -27 33 -6 39 -4 65 29 16 20 32 36 35 36 3 0 19 -11 35 -25 48
-41 80 -50 109 -31 14 9 25 25 25 36 0 33 21 33 54 1 43 -42 92 -50 129 -21
18 15 27 31 27 51 0 29 22 41 35 19 3 -5 23 -10 44 -10 46 0 71 24 71 68 0 33
12 40 39 23 34 -22 91 47 91 110 0 56 -81 310 -99 309 -3 0 -15 -7 -25 -15
-11 -8 -26 -15 -33 -15 -22 0 -14 27 13 45 34 22 74 109 74 162 0 52 -15 93
-34 93 -8 0 -41 -30 -74 -66 -36 -40 -62 -62 -66 -55 -4 6 2 24 13 40 12 16
21 34 21 40 0 16 -76 155 -120 221 -45 66 -63 82 -86 78 -30 -5 -26 20 5 37
17 8 35 24 41 34 21 40 7 111 -21 111 -4 0 -18 -15 -30 -32z m-59 -266 c0 -5
-7 -17 -15 -28 -20 -27 -19 -37 4 -24 25 13 51 13 51 0 0 -6 -11 -16 -25 -22
-27 -12 -33 -28 -11 -28 19 0 31 -19 20 -30 -12 -12 -93 25 -100 44 -7 18 45
95 64 96 6 0 12 -4 12 -8z m-179 -137 c3 -33 8 -72 15 -118 8 -59 -12 -87 -62
-87 -38 0 -64 29 -64 71 0 17 -8 29 -24 37 -25 11 -40 48 -24 58 6 4 15 -1 20
-10 12 -22 38 -20 38 3 0 28 16 34 43 16 28 -18 39 -11 31 21 -5 18 -2 24 10
24 9 0 17 -7 17 -15z m-260 -41 c20 -12 -4 -112 -32 -129 -20 -13 -23 5 -5 41
20 44 15 52 -18 30 -31 -19 -46 -20 -46 -3 0 8 12 20 28 27 l27 13 -24 6 c-14
4 -27 13 -29 20 -4 11 5 13 42 8 26 -4 52 -9 57 -13z m63 -297 c28 -38 35
-151 11 -197 -22 -42 -63 -80 -86 -80 -29 0 -22 23 11 42 37 21 60 72 60 133
0 51 -23 105 -45 105 -7 0 -46 -38 -86 -84 -69 -82 -94 -103 -102 -88 -3 4 32
51 77 105 72 87 84 97 110 95 18 -2 37 -14 50 -31z"/>
<path d="M830 1035 c-10 -12 -11 -26 -4 -53 8 -32 13 -37 39 -37 27 0 30 3 33
35 3 41 -5 55 -34 64 -14 4 -26 1 -34 -9z"/>
</g>
</svg>
