<svg width="256" height="256" xmlns="http://www.w3.org/2000/svg" viewBox="0 0 448 512" fill="#000000"><path fill="#000000" d="M96 32C43 32 0 75 0 128v256c0 53 43 96 96 96h256c53 0 96-43 96-96V128c0-53-43-96-96-96zm77.7 217.3a60.1 60.1 0 1 0 120.3 0a60.1 60.1 0 1 0-120.3 0m-54.6 138.5c-.3-.8-.5-1.7-.5-2.6V140.9c0-1.8.7-3.6 2-4.9s3-2 4.9-2h16.9c1.2 0 2.3.3 3.3.8s1.9 1.3 2.5 2.3l14 21.8c19.7-15.6 44.5-25 71.6-25c63.6 0 115.2 51.6 115.2 115.2s-51.5 115.4-115.2 115.4c-22 0-42.6-6.2-60.1-16.9v37.6c0 .9-.2 1.8-.5 2.6s-.9 1.6-1.5 2.2s-1.4 1.1-2.2 1.5s-1.7.5-2.6.5h-41.3c-.9 0-1.8-.2-2.6-.5s-1.6-.9-2.2-1.5s-1.1-1.4-1.5-2.2z"/></svg>